<?xml version="1.0" encoding="utf-8"?>
<svg id="Calque_1" xmlns="http://www.w3.org/2000/svg" x="0px" y="0px"
     viewBox="0 0 20 20" style="enable-background:new 0 0 20 20;" xml:space="preserve">
<g>
	<g>
		<path d="M10.5,10.3l6.7,6.8c0.3,0.3,0.3,0.7,0,1l-0.4,0.4c-0.3,0.3-0.7,0.3-1,0L10,12.5l-5.8,5.9c-0.3,0.3-0.7,0.3-1,0L2.8,18
			c-0.3-0.3-0.3-0.7,0-1l6.7-6.8C9.8,10,10.2,10,10.5,10.3L10.5,10.3z M9.5,2.9L2.8,9.7c-0.3,0.3-0.3,0.7,0,1l0.4,0.4
			c0.3,0.3,0.7,0.3,1,0L10,5.2l5.8,5.9c0.3,0.3,0.7,0.3,1,0l0.4-0.4c0.3-0.3,0.3-0.7,0-1l-6.7-6.8C10.2,2.6,9.8,2.6,9.5,2.9z"/>
	</g>
    <g>
		<path d="M17.4,1.9V1.5c0-0.3-0.2-0.6-0.5-0.6H3.1c-0.3,0-0.5,0.3-0.5,0.6v0.4c0,0.3,0.2,0.6,0.5,0.6h13.9
			C17.2,2.5,17.4,2.2,17.4,1.9z"/>
	</g>
</g>
</svg>
