<?xml version="1.0" encoding="utf-8"?>
<!-- Generator: Adobe Illustrator 23.0.3, SVG Export Plug-In . SVG Version: 6.00 Build 0)  -->
<svg version="1.1" id="Capa_1" xmlns="http://www.w3.org/2000/svg" xmlns:xlink="http://www.w3.org/1999/xlink" x="0px" y="0px"
	 viewBox="0 0 368 368" style="enable-background:new 0 0 368 368;" xml:space="preserve">
<style type="text/css">
	.st0{stroke:#000000;stroke-width:4;stroke-miterlimit:10;}
</style>
<g>
	<g>
		<path class="st0" d="M240,80h112c8.8,0,16-7.2,16-16V16c0-8.8-7.2-16-16-16H240c-8.8,0-16,7.2-16,16v16h-40c-4.4,0-8,3.6-8,8v136
			h-32v-16c0-8.8-7.2-16-16-16H16c-8.8,0-16,7.2-16,16v48c0,8.8,7.2,16,16,16h112c8.8,0,16-7.2,16-16v-16h32v136c0,4.4,3.6,8,8,8h40
			v16c0,8.8,7.2,16,16,16h112c8.8,0,16-7.2,16-16v-48c0-8.8-7.2-16-16-16H240c-8.8,0-16,7.2-16,16v16h-32V192h32v16
			c0,8.8,7.2,16,16,16h112c8.8,0,16-7.2,16-16v-48c0-8.8-7.2-16-16-16H240c-8.8,0-16,7.2-16,16v16h-32V48h32v16
			C224,72.8,231.2,80,240,80z M240,16l112,0v48H240V16z M128,208H16v-48l112,0V208z M240,304l112,0v48H240V304z M240,160l112,0v48
			H240V160z"/>
	</g>
</g>
</svg>
