<?xml version="1.0" encoding="utf-8"?>
<!-- Generator: Adobe Illustrator 23.0.3, SVG Export Plug-In . SVG Version: 6.00 Build 0)  -->
<svg version="1.1" id="Calque_1" xmlns="http://www.w3.org/2000/svg" xmlns:xlink="http://www.w3.org/1999/xlink" x="0px" y="0px"
	 viewBox="0 0 20 20" style="enable-background:new 0 0 20 20;" xml:space="preserve">
<path d="M3.3,17.9c-0.6,0-1.1-0.5-1.1-1.1V3.3c0-0.6,0.5-1.1,1.1-1.1h13.5c0.6,0,1.1,0.5,1.1,1.1v13.5c0,0.6-0.5,1.1-1.1,1.1h-5.1
	c-0.6,0-1.1-0.5-1.1-1.1v-5.1h2.3c0.3,0,0.6-0.3,0.6-0.6c0-0.1-0.1-0.3-0.2-0.4l-2.8-2.8c-0.2-0.2-0.6-0.2-0.8,0c0,0,0,0,0,0
	l-2.8,2.8c-0.2,0.2-0.2,0.6,0,0.8c0.1,0.1,0.2,0.2,0.4,0.2h2.3v5.1c0,1.2,1,2.3,2.3,2.3h5.1c1.2,0,2.3-1,2.3-2.3V3.3
	C19,2,18,1,16.8,1H3.3C2,1,1,2,1,3.3v13.5C1,18,2,19,3.3,19h2.8c0.3,0,0.6-0.3,0.6-0.6s-0.3-0.6-0.6-0.6H3.3z"/>
</svg>
