<?xml version="1.0" encoding="utf-8"?>
<!-- Generator: Adobe Illustrator 23.0.3, SVG Export Plug-In . SVG Version: 6.00 Build 0)  -->
<svg version="1.1" id="Calque_1" xmlns="http://www.w3.org/2000/svg" xmlns:xlink="http://www.w3.org/1999/xlink" x="0px" y="0px"
	 viewBox="0 0 20 20" style="enable-background:new 0 0 20 20;" xml:space="preserve">
<style type="text/css">
	.st0{fill-rule:evenodd;clip-rule:evenodd;stroke:#000000;stroke-width:0.5;stroke-miterlimit:10;}
</style>
<path class="st0" d="M4.6,16.1c0-0.2,0.2-0.4,0.4-0.4h10.2c0.2,0,0.4,0.2,0.4,0.4c0,0.2-0.2,0.4-0.4,0.4H5
	C4.8,16.5,4.6,16.3,4.6,16.1z M7.4,9c0-0.2,0.2-0.3,0.3-0.3l2.1,0V6.6c0-0.2,0.2-0.3,0.3-0.3s0.3,0.2,0.3,0.3l0,2.1l2.1,0
	c0.2,0,0.3,0.2,0.3,0.3s-0.2,0.3-0.3,0.3l-2.1,0v2.1c0,0.2-0.2,0.3-0.3,0.3s-0.3-0.2-0.3-0.3V9.3l-2.1,0C7.5,9.3,7.4,9.2,7.4,9z
	 M14.9,9c0,2.7-2.2,4.8-4.8,4.8S5.3,11.6,5.3,9s2.2-4.8,4.8-4.8C12.8,4.2,14.9,6.3,14.9,9z M15.6,9c0-3-2.5-5.5-5.5-5.5
	c-3,0-5.5,2.5-5.5,5.5s2.5,5.5,5.5,5.5S15.6,12,15.6,9z"/>
<path d="M17.9,16.8c0,0.6-0.5,1.1-1.1,1.1H3.3c-0.6,0-1.1-0.5-1.1-1.1V3.3c0-0.6,0.5-1.1,1.1-1.1h13.5c0.6,0,1.1,0.5,1.1,1.1V16.8z
	 M19,3.3C19,2,18,1,16.8,1H3.3C2,1,1,2,1,3.3v13.5C1,18,2,19,3.3,19h13.5c1.2,0,2.3-1,2.3-2.3V3.3z"/>
</svg>
