<?xml version="1.0" encoding="utf-8"?>
<!-- Generator: Adobe Illustrator 23.0.3, SVG Export Plug-In . SVG Version: 6.00 Build 0)  -->
<svg version="1.1" id="Calque_1" xmlns="http://www.w3.org/2000/svg" xmlns:xlink="http://www.w3.org/1999/xlink" x="0px" y="0px"
	 viewBox="0 0 20 20" style="enable-background:new 0 0 20 20;" xml:space="preserve">
<style type="text/css">
	.st0{fill-rule:evenodd;clip-rule:evenodd;stroke:#000000;stroke-width:0.5;stroke-miterlimit:10;}
</style>
<path class="st0" d="M15.4,3.9c0,0.2-0.2,0.4-0.4,0.4H4.8c-0.2,0-0.4-0.2-0.4-0.4s0.2-0.4,0.4-0.4l10.2,0
	C15.2,3.5,15.4,3.7,15.4,3.9z M12.6,11c0,0.2-0.2,0.3-0.3,0.3l-2.1,0v2.1c0,0.2-0.2,0.3-0.3,0.3c-0.2,0-0.3-0.2-0.3-0.3l0-2.1
	l-2.1,0c-0.2,0-0.3-0.2-0.3-0.3s0.2-0.3,0.3-0.3l2.1,0V8.6c0-0.2,0.2-0.3,0.3-0.3s0.3,0.2,0.3,0.3v2.1l2.1,0
	C12.5,10.7,12.6,10.8,12.6,11z M5.1,11c0-2.7,2.2-4.8,4.8-4.8c2.7,0,4.8,2.2,4.8,4.8s-2.2,4.8-4.8,4.8S5.1,13.7,5.1,11z M4.4,11
	c0,3,2.5,5.5,5.5,5.5c3,0,5.5-2.5,5.5-5.5s-2.5-5.5-5.5-5.5S4.4,8,4.4,11z"/>
<path d="M2.1,3.3c0-0.6,0.5-1.1,1.1-1.1h13.5c0.6,0,1.1,0.5,1.1,1.1v13.5c0,0.6-0.5,1.1-1.1,1.1H3.3c-0.6,0-1.1-0.5-1.1-1.1V3.3z
	 M1,16.8C1,18,2,19,3.3,19h13.5c1.2,0,2.3-1,2.3-2.3V3.3C19,2,18,1,16.8,1H3.3C2,1,1,2,1,3.3V16.8z"/>
</svg>
