<svg xmlns="http://www.w3.org/2000/svg" fill="currentColor"
     viewBox="0 0 20 20" style="enable-background:new 0 0 20 20;" xml:space="preserve">
	<g>
		<path d="M2.7,2.1c-0.3,0-0.6,0.3-0.6,0.6v4.5c0,0.3-0.3,0.6-0.6,0.6S1,7.5,1,7.2V2.7C1,1.8,1.8,1,2.7,1h4.5c0.3,0,0.6,0.3,0.6,0.6
			S7.5,2.1,7.2,2.1H2.7z M12.3,1.6c0-0.3,0.3-0.6,0.6-0.6h4.5C18.2,1,19,1.8,19,2.7v4.5c0,0.3-0.3,0.6-0.6,0.6s-0.6-0.3-0.6-0.6V2.7
			c0-0.3-0.3-0.6-0.6-0.6h-4.5C12.5,2.1,12.3,1.9,12.3,1.6z M1.6,12.3c0.3,0,0.6,0.3,0.6,0.6v4.5c0,0.3,0.3,0.6,0.6,0.6h4.5
			c0.3,0,0.6,0.3,0.6,0.6S7.5,19,7.2,19H2.7C1.8,19,1,18.2,1,17.3l0,0v-4.5C1,12.5,1.3,12.3,1.6,12.3z M18.4,12.3
			c0.3,0,0.6,0.3,0.6,0.6v4.5c0,0.9-0.8,1.7-1.7,1.7l0,0h-4.5c-0.3,0-0.6-0.3-0.6-0.6s0.3-0.6,0.6-0.6h4.5c0.3,0,0.6-0.3,0.6-0.6
			v-4.5C17.9,12.5,18.1,12.3,18.4,12.3z"/>
	</g>
    <g>
		<path d="M16.8,9.4c-1.4-2.3-3.9-3.9-6.8-3.9c-0.9,0-1.7,0.1-2.5,0.4L6,3.9C5.9,3.8,5.7,3.7,5.5,3.8L5.4,4C5.3,4.1,5.2,4.2,5.3,4.4
			l1.4,1.9C5.2,6.9,4,8,3.2,9.4c-0.2,0.4-0.2,0.8,0,1.2c0.7,1.3,1.8,2.3,3.1,3c-2.6-3.5-2.3-3.1-2.5-3.4c-0.1-0.1-0.1-0.3,0-0.4
			C4,9.6,4.1,9.4,4.2,9.2l3.7,5c0.4,0.1,0.7,0.2,1.1,0.2L4.8,8.6C5,8.3,5.3,8.1,5.6,7.8l4.9,6.6c0.3,0,0.6-0.1,0.9-0.1l-5.2-7
			c0.1,0,0.1-0.1,0.2-0.1C6.6,7.1,6.9,7,7.2,6.9l6.8,9.2c0.1,0.1,0.3,0.2,0.4,0.1l0.2-0.1c0.1-0.1,0.2-0.3,0.1-0.4l-1.4-1.9
			c1.5-0.7,2.7-1.8,3.6-3.2C17.1,10.2,17.1,9.8,16.8,9.4L16.8,9.4z M11.8,11.8l-0.9-1.3c0.7-0.5,0.9-1.3,0.5-2v0
			c0,0.4-0.3,0.7-0.7,0.6c-0.3,0-0.6-0.3-0.6-0.6c0-0.4,0.3-0.7,0.6-0.7h0C10.2,7.6,9.5,7.6,9,8L8.2,6.9C8.7,6.5,9.3,6.3,10,6.3
			c1.7,0,3.1,1.3,3.1,3C13.1,10.3,12.6,11.2,11.8,11.8L11.8,11.8z M16.2,10.2c-0.8,1.3-2,2.3-3.4,2.9l-0.5-0.7
			c1.8-1.3,2.1-3.7,0.8-5.4c1.3,0.6,2.4,1.6,3.1,2.8C16.2,9.9,16.2,10.1,16.2,10.2z"/>
	</g>
</svg>
