<svg xmlns="http://www.w3.org/2000/svg" version="1.1" id="Capa_1" viewBox="0 0 511.997 511.997" fill="currentColor" style="enable-background:new 0 0 511.997 511.997;" xml:space="preserve">
	<g>
		<path d="M444.92,365.778L231.587,152.445c-3.051-3.051-7.637-3.947-11.627-2.304c-3.989,1.643-6.592,5.547-6.592,9.856v295.381    c0,4.075,2.325,7.808,5.995,9.579c3.691,1.813,8.021,1.344,11.243-1.173l54.144-42.347l47.275,85.077    c1.941,3.499,5.589,5.483,9.344,5.483c1.621,0,3.243-0.363,4.779-1.131l64-32c2.603-1.301,4.565-3.605,5.419-6.379    c0.853-2.795,0.533-5.803-0.875-8.341l-44.523-80.149h67.2c4.309,0,8.213-2.603,9.856-6.592    C448.888,373.416,447.971,368.829,444.92,365.778z M352.035,362.664c-3.776,0-7.275,1.984-9.195,5.291    c-1.92,3.243-1.963,7.275-0.128,10.581l47.915,86.251l-44.885,22.464l-48.384-87.083c-1.515-2.731-4.139-4.672-7.211-5.291    c-0.704-0.149-1.408-0.213-2.112-0.213c-2.368,0-4.672,0.768-6.571,2.261l-46.763,36.565V185.746l176.917,176.917H352.035z"/>
	</g>
    <g>
		<path d="M373.453,102.781c-15.296-39.915-45.184-71.488-84.224-88.896c-80.533-35.947-175.339,0.32-211.307,80.896    c-17.408,39.019-18.581,82.496-3.328,122.432c15.296,39.915,45.184,71.488,84.224,88.896c1.408,0.619,2.88,0.917,4.331,0.917    c4.096,0,7.979-2.368,9.749-6.336c2.411-5.376-0.021-11.691-5.397-14.08C97.699,255.442,66.232,173.288,97.4,103.464    C128.589,33.661,210.765,2.258,280.547,33.362c69.803,31.168,101.269,113.323,70.101,183.147    c-2.411,5.376,0.021,11.691,5.397,14.08c5.376,2.432,11.669-0.043,14.08-5.397C387.555,186.173,388.728,142.696,373.453,102.781z"/>
	</g>
</svg>
