<svg xmlns="http://www.w3.org/2000/svg" id="Capa_1" x="0px"
     y="0px" viewBox="0 0 511.807 511.807" style="enable-background:new 0 0 511.807 511.807;" xml:space="preserve">
<g>
	<g>
		<g>
			<path d="M509.664,271.904c-14.276-24.613-31.703-47.257-51.84-67.36l-22.56,22.72c15.947,15.88,30.013,33.543,41.92,52.64     c-22.39,36.24-52.763,66.886-88.8,89.6c17.966-26.424,27.556-57.647,27.52-89.6h-32c0,70.692-57.308,128-128,128     s-128-57.308-128-128s57.308-128,128-128v-32c-105.748,1.41-202.615,59.432-253.76,152c-2.858,4.95-2.858,11.05,0,16     c51.145,92.568,148.012,150.59,253.76,152c105.748-1.41,202.615-59.432,253.76-152     C512.522,282.953,512.522,276.854,509.664,271.904z M123.424,369.504c-36.03-22.723-66.401-53.367-88.8-89.6     c22.399-36.233,52.77-66.877,88.8-89.6C86.835,244.434,86.835,315.373,123.424,369.504z"/>
            <path d="M175.904,279.904c0,44.183,35.817,80,80,80s80-35.817,80-80c0-44.183-35.817-80-80-80S175.904,235.721,175.904,279.904z      M301.024,263.904h-45.12c-8.837,0-16,7.163-16,16v45.12c-25.034-8.722-38.257-36.086-29.536-61.12     c8.722-25.034,36.086-38.257,61.12-29.536C285.325,239.189,296.203,250.066,301.024,263.904z"/>
            <polygon
                    points="351.904,199.904 383.904,199.904 383.904,151.904 431.904,151.904 431.904,119.904 383.904,119.904      383.904,71.904 351.904,71.904 351.904,119.904 303.904,119.904 303.904,151.904 351.904,151.904    "/>
		</g>
	</g>
</g>
</svg>
