<svg xmlns="http://www.w3.org/2000/svg" width="20" height="20" fill="currentColor"
     viewBox="0 0 60 60">
    <g>

        <path d="m7 8h-6c-.552 0-1-.448-1-1v-6c0-.552.448-1 1-1h6c.552 0 1 .448 1 1v6c0 .552-.448 1-1 1zm-5-2h4v-4h-4z"/>
        <path d="m59 8h-6c-.552 0-1-.448-1-1v-6c0-.552.448-1 1-1h6c.552 0 1 .448 1 1v6c0 .552-.448 1-1 1zm-5-2h4v-4h-4z"/>
        <path d="m59 60h-6c-.552 0-1-.448-1-1v-6c0-.552.448-1 1-1h6c.552 0 1 .448 1 1v6c0 .552-.448 1-1 1zm-5-2h4v-4h-4z"/>
        <path d="m29 40h-28c-.552 0-1-.448-1-1v-8c0-.552.448-1 1-1h28c.552 0 1 .448 1 1v8c0 .552-.448 1-1 1zm-27-2h26v-6h-26z"/>
        <path d="m6 36h-1c-.552 0-1-.448-1-1s.448-1 1-1h1c.552 0 1 .448 1 1s-.448 1-1 1z"/>
        <path d="m11 36h-1c-.552 0-1-.448-1-1s.448-1 1-1h1c.552 0 1 .448 1 1s-.448 1-1 1z"/>
        <path d="m16 36h-1c-.552 0-1-.448-1-1s.448-1 1-1h1c.552 0 1 .448 1 1s-.448 1-1 1z"/>
        <path d="m29 60h-28c-.552 0-1-.448-1-1v-20c0-.552.448-1 1-1h28c.552 0 1 .448 1 1v20c0 .552-.448 1-1 1zm-27-2h26v-18h-26z"/>
        <path d="m53 57h-24c-.552 0-1-.448-1-1v-24h-24c-.552 0-1-.448-1-1v-24c0-.552.448-1 1-1h2v-2c0-.552.448-1 1-1h46c.552 0 1 .448 1 1v2h2c.552 0 1 .448 1 1v46c0 .552-.448 1-1 1h-2v2c0 .552-.448 1-1 1zm-23-2h22v-2c0-.552.448-1 1-1h2v-44h-2c-.552 0-1-.448-1-1v-2h-44v2c0 .552-.448 1-1 1h-2v22h24c.552 0 1 .448 1 1z"/>
        <path d="m18 28c-.552 0-1-.448-1-1v-10c0-.552.448-1 1-1s1 .448 1 1v10c0 .552-.448 1-1 1z"/>
        <path d="m15 21c-.256 0-.512-.098-.707-.293-.391-.391-.391-1.023 0-1.414l3-3c.39-.391 1.024-.391 1.414 0 .391.391.391 1.023 0 1.414l-3 3c-.195.195-.451.293-.707.293z"/>
        <path d="m21 21c-.256 0-.512-.098-.707-.293l-3-3c-.391-.391-.391-1.023 0-1.414.39-.391 1.024-.391 1.414 0l3 3c.391.391.391 1.023 0 1.414-.195.195-.451.293-.707.293z"/>
        <path d="m43 44h-10c-.552 0-1-.448-1-1s.448-1 1-1h10c.552 0 1 .448 1 1s-.448 1-1 1z"/>
        <path d="m43 44c-.256 0-.512-.098-.707-.293l-3-3c-.391-.391-.391-1.023 0-1.414.39-.391 1.024-.391 1.414 0l3 3c.391.391.391 1.023 0 1.414-.195.195-.451.293-.707.293z"/>
        <path d="m40 47c-.256 0-.512-.098-.707-.293-.391-.391-.391-1.023 0-1.414l3-3c.39-.391 1.024-.391 1.414 0 .391.391.391 1.023 0 1.414l-3 3c-.195.195-.451.293-.707.293z"/>
        <path d="m33 29c-.256 0-.512-.098-.707-.293-.391-.391-.391-1.023 0-1.414l7-7c.39-.391 1.024-.391 1.414 0 .391.391.391 1.023 0 1.414l-7 7c-.195.195-.451.293-.707.293z"/>
        <path d="m40 22h-5c-.552 0-1-.448-1-1s.448-1 1-1h5c.552 0 1 .448 1 1s-.448 1-1 1z"/>
        <path d="m40 27c-.552 0-1-.448-1-1v-5c0-.552.448-1 1-1s1 .448 1 1v5c0 .552-.448 1-1 1z"/>
    </g>
</svg>
