<svg xmlns="http://www.w3.org/2000/svg" viewBox="0 0 41 30.75">
    <g id="Layer_2" >
        <g id="Layer_1-2" >
            <path d="M38.87.57a4.48,4.48,0,0,1,1.56,1.56A4.2,4.2,0,0,1,41,4.26V14.51a4.21,4.21,0,0,1-.57,2.14,4.37,4.37,0,0,1-1.56,1.55,4.11,4.11,0,0,1-2.13.58h-6a.79.79,0,0,1-.59-.27.81.81,0,0,1-.27-.59.77.77,0,0,1,.27-.58.84.84,0,0,1,.59-.24h6a2.43,2.43,0,0,0,1.8-.76,2.54,2.54,0,0,0,.74-1.83V4.26a2.45,2.45,0,0,0-.74-1.8,2.45,2.45,0,0,0-1.8-.74H4.26a2.49,2.49,0,0,0-1.78.74,2.4,2.4,0,0,0-.76,1.8V14.51a2.54,2.54,0,0,0,.74,1.83,2.43,2.43,0,0,0,1.8.76H14.51a.89.89,0,0,1,.62.22.79.79,0,0,1,.25.6.85.85,0,0,1-.25.61.83.83,0,0,1-.62.25H4.26a4.11,4.11,0,0,1-2.13-.58A4.37,4.37,0,0,1,.57,16.65,4.21,4.21,0,0,1,0,14.51V4.26A4.2,4.2,0,0,1,.57,2.13,4.48,4.48,0,0,1,2.13.57,4.2,4.2,0,0,1,4.26,0H36.74A4.2,4.2,0,0,1,38.87.57ZM30.46,20.71a.88.88,0,0,1,.27.45.91.91,0,0,1,0,.49.88.88,0,0,1-.31.41.84.84,0,0,1-.51.16H26.28l3,5a1.12,1.12,0,0,1,.13.66,1.21,1.21,0,0,1-.41.53l-3.82,2.22a.71.71,0,0,1-.45.12.49.49,0,0,1-.24,0A.63.63,0,0,1,24,30.3l-2.91-5.78L18.53,27.1a.94.94,0,0,1-.45.21,1.06,1.06,0,0,1-.47,0,.79.79,0,0,1-.37-.31.83.83,0,0,1-.14-.47V11.11a1,1,0,0,1,.12-.47.75.75,0,0,1,.35-.33.76.76,0,0,1,.47-.06,1,1,0,0,1,.45.21Zm-2.87-.21L18.78,13V24.4l2-1.93a.81.81,0,0,1,.61-.25h.12a.93.93,0,0,1,.66.45l3,6,2.3-1.35L24,21.81a.82.82,0,0,1,0-.88.78.78,0,0,1,.73-.43Z"/>
        </g>
    </g>
</svg>
