<svg xmlns="http://www.w3.org/2000/svg" viewBox="0 0 41 37.56">
<g id="Layer_2" >
    <g id="Layer_1-2" >
        <path fill="currentColor" d="M18,.74a2.45,2.45,0,0,1,.74,1.8V16.2A2.53,2.53,0,0,1,18,18a2.4,2.4,0,0,1-1.8.76H2.58A2.45,2.45,0,0,1,.76,18,2.47,2.47,0,0,1,0,16.2V2.54A2.4,2.4,0,0,1,.76.74,2.51,2.51,0,0,1,2.58,0H16.24A2.45,2.45,0,0,1,18,.74Zm.55,21.65a.79.79,0,0,1,.21.51.88.88,0,0,1-.15.55,6.47,6.47,0,0,1-1.59,1.68,9.43,9.43,0,0,1-1.21,4.94,10.85,10.85,0,0,1-3.63,4,10.12,10.12,0,0,1-5.78,1.76,11.34,11.34,0,0,1-6-1.64.69.69,0,0,1-.39-.41.9.9,0,0,1,.31-1,.8.8,0,0,1,.57-.15,6.79,6.79,0,0,0,2.83-.28,4.67,4.67,0,0,1-2.13-2.22.77.77,0,0,1-.08-.49.91.91,0,0,1,.2-.45l0,0a4,4,0,0,1-1.31-3A.88.88,0,0,1,1,25.3H1v0c-.05-.14-.1-.32-.16-.54a3.86,3.86,0,0,1,.49-3.19A.73.73,0,0,1,2,21.09a1,1,0,0,1,.76.31,8.49,8.49,0,0,0,5.61,3.2,4.84,4.84,0,0,1,.45-1.85,3.77,3.77,0,0,1,1.44-1.55A5,5,0,0,1,13,20.5a4.4,4.4,0,0,1,2.5,1c.27-.08.56-.18.88-.3a5.47,5.47,0,0,0,.66-.31.79.79,0,0,1,.45-.12.74.74,0,0,1,.47.16,1.14,1.14,0,0,1,.31.41.75.75,0,0,1,0,.49.68.68,0,0,1-.09.33A.71.71,0,0,1,18.59,22.39ZM17.1,2.54A.81.81,0,0,0,16.83,2a.83.83,0,0,0-.59-.27H2.58A.79.79,0,0,0,2,2a.83.83,0,0,0-.25.59V16.2a.81.81,0,0,0,.25.61.85.85,0,0,0,.61.25H8.53V10.25H7.71a.84.84,0,0,1-.86-.86.82.82,0,0,1,.86-.86h.82a3.27,3.27,0,0,1,1-2.4,3.33,3.33,0,0,1,2.44-1h.86a.84.84,0,0,1,.58.22.78.78,0,0,1,.24.6.84.84,0,0,1-.24.61.83.83,0,0,1-.58.25H12a1.74,1.74,0,0,0-1.72,1.72H12a.89.89,0,0,1,.86.86.82.82,0,0,1-.26.59.83.83,0,0,1-.6.27H10.25v6.81h6a.89.89,0,0,0,.59-.25.79.79,0,0,0,.27-.61ZM14.45,29.11a7.35,7.35,0,0,0,.88-4.31.65.65,0,0,1,.17-.61.86.86,0,0,1-.37-.57.77.77,0,0,1,0-.37,1,1,0,0,1-.45-.21,2.77,2.77,0,0,0-3.57-.33,2.07,2.07,0,0,0-1,1.36,2.78,2.78,0,0,0,0,1.27.78.78,0,0,1-.17.74.87.87,0,0,1-.33.26.49.49,0,0,1-.36.06,10.6,10.6,0,0,1-6.81-2.82,4,4,0,0,0,.1.75,2.25,2.25,0,0,0,.47,1,2,2,0,0,0,.52.49.86.86,0,0,1,.43.88.81.81,0,0,1-.23.45.93.93,0,0,1-.41.25,2.86,2.86,0,0,1-.68.06,2.84,2.84,0,0,0,1,.94,1.78,1.78,0,0,0,.76.35.93.93,0,0,1,.49.19.68.68,0,0,1,.29.4.94.94,0,0,1,0,.5.91.91,0,0,1-.29.41,3.13,3.13,0,0,1-.66.37A3.3,3.3,0,0,0,6,31.12a.93.93,0,0,1,.78.57,1.18,1.18,0,0,1,0,.49.84.84,0,0,1-.25.46,7.5,7.5,0,0,1-2.29,1.27,9,9,0,0,0,4.18,0,8.59,8.59,0,0,0,2.78-1.23A9.57,9.57,0,0,0,14.45,29.11ZM40.14,1.56A3.18,3.18,0,0,1,41,3.77v7.79a3.18,3.18,0,0,1-.88,2.26,3.11,3.11,0,0,1-2.15,1l-4.31.41c-1,.08-1.95.13-2.91.13s-1.93-.05-2.91-.13l-4.31-.41a3.11,3.11,0,0,1-2.15-1,3.18,3.18,0,0,1-.88-2.26V3.77a3.18,3.18,0,0,1,.86-2.21A3.26,3.26,0,0,1,23.53.49L27.84.12a35.34,35.34,0,0,1,5.82,0L38,.49A3.26,3.26,0,0,1,40.14,1.56ZM38,17.86a5.85,5.85,0,0,1,2.17,2.19,6,6,0,0,1,.8,3v8.53a5.89,5.89,0,0,1-.8,3,5.93,5.93,0,0,1-5.19,3H26.49a6,6,0,0,1-6-6V23a6,6,0,0,1,.8-3,5.91,5.91,0,0,1,5.19-3H35A5.83,5.83,0,0,1,38,17.86ZM39.28,3.77a1.6,1.6,0,0,0-.41-1.08,1.46,1.46,0,0,0-1-.52L33.5,1.8c-.9-.08-1.82-.12-2.75-.12s-1.85,0-2.75.12l-4.34.37a1.44,1.44,0,0,0-1,.52,1.6,1.6,0,0,0-.41,1.08v7.79a1.64,1.64,0,0,0,.41,1.09,1.47,1.47,0,0,0,1,.51l4.34.37a31.57,31.57,0,0,0,5.5,0l4.34-.37a1.48,1.48,0,0,0,1-.51,1.64,1.64,0,0,0,.41-1.09Zm0,19.27a4.11,4.11,0,0,0-.58-2.13,4.29,4.29,0,0,0-1.55-1.56A4.21,4.21,0,0,0,35,18.78H26.49a4.21,4.21,0,0,0-2.14.57,4.29,4.29,0,0,0-1.55,1.56A4.11,4.11,0,0,0,22.22,23v8.53a4.16,4.16,0,0,0,1.25,3,4.11,4.11,0,0,0,3,1.26H35a4.11,4.11,0,0,0,3-1.26,4.16,4.16,0,0,0,1.25-3Zm-6-.16a5.29,5.29,0,0,1,1.87,1.86,5,5,0,0,1,0,5.13,5.29,5.29,0,0,1-1.87,1.86,5,5,0,0,1-5.12,0,5.29,5.29,0,0,1-1.87-1.86,5.11,5.11,0,0,1,0-5.13,5.29,5.29,0,0,1,1.87-1.86,5,5,0,0,1,5.12,0ZM33.78,7a.79.79,0,0,1,.37.72.7.7,0,0,1-.37.67l-5.12,3.45a.75.75,0,0,1-.45.12,1.46,1.46,0,0,1-.41-.08.83.83,0,0,1-.45-.78V4.26a.81.81,0,0,1,.45-.77,1.06,1.06,0,0,1,.45-.09.63.63,0,0,1,.41.13Zm-.63,22.78a3.33,3.33,0,0,0,1-2.44,3.36,3.36,0,0,0-3.38-3.41,3.33,3.33,0,0,0-2.42,1,3.24,3.24,0,0,0-1,2.42,3.33,3.33,0,0,0,1,2.44,3.38,3.38,0,0,0,4.8,0ZM31.77,7.67,29,5.86V9.51Z"/>
    </g>
</g>
</svg>
