<?xml version="1.0" encoding="utf-8"?>
<!-- Generator: Adobe Illustrator 23.0.3, SVG Export Plug-In . SVG Version: 6.00 Build 0)  -->
<svg version="1.0" id="Calque_1" xmlns="http://www.w3.org/2000/svg" xmlns:xlink="http://www.w3.org/1999/xlink" x="0px" y="0px"
     viewBox="0 0 20 20" style="enable-background:new 0 0 20 20;" xml:space="preserve">
<g>
	<path d="M19.9,14.1l-3.1,3.8c-0.1,0.2-0.4,0.2-0.5,0l-3.1-3.8c-0.1-0.2-0.1-0.5,0-0.6l0.2-0.2c0.1-0.2,0.4-0.2,0.5,0l2.1,2.6V5.1
		H8.1C8,5.1,7.9,5.1,7.9,5L7.6,4.7C7.4,4.4,7.6,3.9,7.9,3.9h8.4c0.4,0,0.8,0.4,0.8,0.9v11l2.1-2.6c0.1-0.2,0.4-0.2,0.5,0l0.2,0.2
		C20,13.6,20,13.9,19.9,14.1z M12.2,15c-0.1-0.1-0.2-0.1-0.3-0.1H4V4.1l2.2,2.7C6.3,7,6.5,7,6.6,6.8l0.3-0.4C7,6.3,7,6.1,6.9,6
		L3.8,2.1C3.6,2,3.4,2,3.2,2.1L0.1,6C0,6.1,0,6.3,0.1,6.4l0.3,0.4C0.5,7,0.7,7,0.8,6.8L3,4.1v11.3c0,0.4,0.2,0.6,0.5,0.6h8.9
		c0.2,0,0.3-0.3,0.2-0.5L12.2,15z"/>
</g>
    <g>
	<g>
		<g>
			<path d="M12.8,7H7.2C7.1,7,7,7.1,7,7.2v1c0,0.1,0.1,0.2,0.2,0.2c0.1,0,0.3-0.1,0.3-0.2V7.5h1.8v5.1H9c-0.1,0-0.2,0.1-0.2,0.2
				c0,0.1,0.1,0.3,0.2,0.3H11c0.1,0,0.2-0.1,0.2-0.2c0-0.1-0.1-0.3-0.2-0.3h-0.4V8.4c0-0.1-0.1-0.2-0.2-0.2c-0.1,0-0.3,0.1-0.3,0.2
				v4.1H9.8V7.5h2.8v0.8c0,0.1,0.1,0.2,0.2,0.2c0.1,0,0.3-0.1,0.3-0.2v-1C13,7.1,12.9,7,12.8,7z"/>
		</g>
	</g>
</g>
</svg>
