<svg xmlns="http://www.w3.org/2000/svg" version="1.1" x="0px"
     y="0px" viewBox="0 0 512 512" style="enable-background:new 0 0 512 512;" xml:space="preserve">
<g>
	<g>
		<path d="M492,0H20C8.954,0,0,8.954,0,20v88c0,11.046,8.954,20,20,20s20-8.954,20-20V40h156v432h-30c-11.046,0-20,8.954-20,20    c0,11.046,8.954,20,20,20h180c11.046,0,20-8.954,20-20c0-11.046-8.954-20-20-20h-30V120c0-11.046-8.954-20-20-20    c-11.046,0-20,8.954-20,20v352h-40V40h236v68c0,11.046,8.954,20,20,20c11.046,0,20-8.954,20-20V20C512,8.954,503.046,0,492,0z"/>
	</g>
</g>
</svg>
