<svg xmlns="http://www.w3.org/2000/svg" viewBox="0 0 41 41" fill="currentColor">
    <g>
        <g >
            <path d="M40.26,11a2.45,2.45,0,0,1,.74,1.8V28.17A2.51,2.51,0,0,1,40.26,30a2.4,2.4,0,0,1-1.8.76H2.58A2.45,2.45,0,0,1,.76,30,2.45,2.45,0,0,1,0,28.17V12.79A2.4,2.4,0,0,1,.76,11a2.51,2.51,0,0,1,1.82-.74H38.46A2.45,2.45,0,0,1,40.26,11Zm-1,1.8a.86.86,0,0,0-.82-.82H2.58a.81.81,0,0,0-.61.25.75.75,0,0,0-.25.57V28.17a.81.81,0,0,0,.25.61.81.81,0,0,0,.61.25H38.46a.75.75,0,0,0,.57-.25.81.81,0,0,0,.25-.61ZM3.67,1.48A.81.81,0,0,1,3.4.86.79.79,0,0,1,3.67.25.83.83,0,0,1,4.26,0H36.74a.83.83,0,0,1,.59.27.79.79,0,0,1,.27.59.83.83,0,0,1-.27.6.86.86,0,0,1-.59.26H4.26A.86.86,0,0,1,3.67,1.48Zm0,5.12A.79.79,0,0,1,3.4,6a.81.81,0,0,1,.27-.62.86.86,0,0,1,.59-.24H36.74a.81.81,0,0,1,.59.26.83.83,0,0,1,.27.6.81.81,0,0,1-.27.59.83.83,0,0,1-.59.27H4.26A.83.83,0,0,1,3.67,6.6ZM37.33,34.4a.84.84,0,0,1,0,1.23.89.89,0,0,1-.59.25H4.26a.81.81,0,0,1-.59-.27.79.79,0,0,1,0-1.19.81.81,0,0,1,.59-.27H36.74A.84.84,0,0,1,37.33,34.4Zm0,5.12a.81.81,0,0,1,.27.62.78.78,0,0,1-.27.61.84.84,0,0,1-.59.25H4.26a.81.81,0,0,1-.59-.27.79.79,0,0,1-.27-.59.83.83,0,0,1,.27-.6.84.84,0,0,1,.59-.26H36.74A.88.88,0,0,1,37.33,39.52Z"/>
        </g>
    </g>
</svg>
