<?xml version="1.0" encoding="utf-8"?>
<!-- Generator: Adobe Illustrator 23.0.3, SVG Export Plug-In . SVG Version: 6.00 Build 0)  -->
<svg version="1.0" id="Calque_1" xmlns="http://www.w3.org/2000/svg" xmlns:xlink="http://www.w3.org/1999/xlink" x="0px" y="0px"
     viewBox="0 0 20 20" style="enable-background:new 0 0 20 20;" xml:space="preserve">
<g>
	<path d="M14.2,8.2h-2.4V6.7c0-0.2-0.2-0.3-0.3-0.3H5.8c-0.2,0-0.3,0.2-0.3,0.3v4.7c0,0.2,0.2,0.3,0.3,0.3h2.4v1.5
		c0,0.2,0.2,0.3,0.3,0.3h5.6c0.2,0,0.3-0.2,0.3-0.3V8.5C14.5,8.4,14.3,8.2,14.2,8.2z M6.4,10.9V7.3h4.5v3.6H6.4z M13.6,12.7H9.1
		v-0.9h2.4c0.2,0,0.3-0.1,0.3-0.3V9.3h1.8V12.7z"/>
</g>
    <path d="M1.9,3.1c0-1,0.8-1.9,1.9-1.9h12.5c1,0,1.9,0.8,1.9,1.9v4.5c1.3,0.3,2.1,1.7,1.8,3c-0.2,0.9-0.9,1.6-1.8,1.8v4.5
	c0,1-0.8,1.9-1.9,1.9H3.8c-1,0-1.9-0.8-1.9-1.9v-4.5c-1.3-0.3-2.1-1.7-1.8-3C0.3,8.5,1,7.8,1.9,7.6V3.1z M3.1,7.6
	c1.3,0.3,2.1,1.7,1.8,3c-0.2,0.9-0.9,1.6-1.8,1.8v4.5c0,0.3,0.3,0.6,0.6,0.6h12.5c0.3,0,0.6-0.3,0.6-0.6v-4.5
	c-1.3-0.3-2.1-1.7-1.8-3c0.2-0.9,0.9-1.6,1.8-1.8V3.1c0-0.3-0.3-0.6-0.6-0.6H3.8c-0.3,0-0.6,0.3-0.6,0.6V7.6z M2.5,8.8
	c-0.7,0-1.2,0.6-1.2,1.2c0,0.7,0.6,1.2,1.2,1.2s1.2-0.6,1.2-1.2C3.8,9.3,3.2,8.8,2.5,8.8z M17.5,8.8c-0.7,0-1.2,0.6-1.2,1.2
	c0,0.7,0.6,1.2,1.2,1.2c0.7,0,1.2-0.6,1.2-1.2C18.7,9.3,18.2,8.8,17.5,8.8z"/>
</svg>
