<svg xmlns="http://www.w3.org/2000/svg" viewBox="0 0 41.01 41" fill="currentColor" >
    <g>
        <g>
            <path d="M40.75.25A.81.81,0,0,1,41,.86v23.9a.8.8,0,0,1-.27.62.85.85,0,0,1-.59.25.89.89,0,0,1-.6-.25.82.82,0,0,1-.26-.62v-23H1.72V25l5.21-9.18a1.18,1.18,0,0,1,.7-.41.66.66,0,0,1,.69.28l5.25,6,3.65-5.86a.78.78,0,0,1,.51-.39.74.74,0,0,1,.66.1.83.83,0,0,1,.37.55.94.94,0,0,1-.11.64l-4.26,6.8a.68.68,0,0,1-.66.41.52.52,0,0,1-.36,0,.68.68,0,0,1-.33-.24L7.83,17.67,1.72,28.41V29H19.64a.84.84,0,0,1,.86.86.79.79,0,0,1-.25.61.81.81,0,0,1-.61.25H.86a.81.81,0,0,1-.61-.25A.79.79,0,0,1,0,29.89V.86A.81.81,0,0,1,.25.25.81.81,0,0,1,.86,0H40.14A.81.81,0,0,1,40.75.25Zm-35,7A4.26,4.26,0,0,1,9.39,5.13a4.18,4.18,0,0,1,4.26,4.26,4.26,4.26,0,0,1-4.26,4.26A4.26,4.26,0,0,1,5.13,9.39,4.15,4.15,0,0,1,5.7,7.26Zm5.51.35a2.45,2.45,0,0,0-1.82-.76A2.49,2.49,0,0,0,6.85,9.39a2.5,2.5,0,0,0,.73,1.82,2.55,2.55,0,0,0,3.63,0A2.45,2.45,0,0,0,12,9.39,2.41,2.41,0,0,0,11.21,7.61ZM40.75,29.27a.84.84,0,0,1,.25.46.79.79,0,0,1-.08.49.78.78,0,0,1-.78.53H34.77l3.56,6.44a.71.71,0,0,1,.05.63.78.78,0,0,1-.41.51l-5.13,2.59a1.45,1.45,0,0,1-.37.08.84.84,0,0,1-.78-.45l-3.77-6.81-4.34,3.41a.82.82,0,0,1-.91.08.69.69,0,0,1-.32-.29.81.81,0,0,1-.13-.45V12.79a.84.84,0,0,1,.15-.47.72.72,0,0,1,.36-.31.93.93,0,0,1,.5,0,.9.9,0,0,1,.43.23ZM38.09,29,23.9,14.88V34.73l3.77-3a.79.79,0,0,1,.54-.16h.16a.9.9,0,0,1,.58.45l3.85,7,3.61-1.8L32.55,30.3a.8.8,0,0,1,.05-.82.73.73,0,0,1,.73-.45Z"/>
        </g>
    </g>
</svg>
