<svg xmlns="http://www.w3.org/2000/svg" viewBox="0 0 40.99 29.93">
    <g>
        <g>
            <path d="M5,8.88a.9.9,0,0,1,.17.55V23.08a.83.83,0,0,1-.27.6.8.8,0,0,1-.59.26.89.89,0,0,1-.86-.86V12.22L1.55,15a.79.79,0,0,1-.51.37.83.83,0,0,1-.66-.13A.85.85,0,0,1,0,14.7a.82.82,0,0,1,.15-.64l3.4-5.12A.78.78,0,0,1,4,8.61a.89.89,0,0,1,.51,0A.64.64,0,0,1,5,8.88Zm10,.26a4.4,4.4,0,0,1,1.56,1.56,4.2,4.2,0,0,1,.57,2.13v.49A4.05,4.05,0,0,1,16.15,16l-5,6.23h5a.79.79,0,0,1,.59.27.81.81,0,0,1,.27.59.83.83,0,0,1-.27.6.78.78,0,0,1-.59.26H9.38a.86.86,0,0,1-.78-.49A1.14,1.14,0,0,1,8.54,23a.69.69,0,0,1,.19-.43l6.06-7.63a2.39,2.39,0,0,0,.58-1.6v-.49A2.51,2.51,0,0,0,14.63,11a2.4,2.4,0,0,0-1.8-.76,2.59,2.59,0,0,0-2.59,2.58.86.86,0,0,1-.26.6.82.82,0,0,1-.6.26.8.8,0,0,1-.59-.26.83.83,0,0,1-.27-.6,4.12,4.12,0,0,1,1.25-3A4.33,4.33,0,0,1,15,9.14Zm13.61,5.6a4.47,4.47,0,0,1-1.23,1.5,4.53,4.53,0,0,1,1.23,1.49A4.24,4.24,0,0,1,29,19.68a4.15,4.15,0,0,1-.57,2.13,4.24,4.24,0,0,1-1.56,1.56,4.2,4.2,0,0,1-2.13.57,4.26,4.26,0,0,1-3.69-2.13,4.06,4.06,0,0,1-.58-2.13.81.81,0,0,1,.27-.62.86.86,0,0,1,1.19,0,.81.81,0,0,1,.27.62,2.51,2.51,0,0,0,2.54,2.54,2.47,2.47,0,0,0,1.82-.74,2.4,2.4,0,0,0,.76-1.8,2.59,2.59,0,0,0-2.58-2.58.83.83,0,0,1-.6-.27.8.8,0,0,1-.26-.59.89.89,0,0,1,.86-.86,2.51,2.51,0,0,0,1.82-.74,2.42,2.42,0,0,0,.76-1.81A2.57,2.57,0,0,0,23,11a2.5,2.5,0,0,0-.73,1.82.89.89,0,0,1-.25.6.86.86,0,0,1-1.23,0,.89.89,0,0,1-.25-.6,4.1,4.1,0,0,1,1.25-3,4.19,4.19,0,0,1,3-1.23A4.2,4.2,0,0,1,29,12.83,4.13,4.13,0,0,1,28.57,14.74ZM41,6a.81.81,0,0,1-.24.59.79.79,0,0,1-.58.25,1,1,0,0,1-.65-.25L35.87,3V29.07a.79.79,0,0,1-.27.59.81.81,0,0,1-.59.27.83.83,0,0,1-.6-.27.78.78,0,0,1-.26-.59V3L30.5,6.6a.79.79,0,0,1-.58.25.89.89,0,0,1-.61-.25A.75.75,0,0,1,29,6a.88.88,0,0,1,.29-.64L34.39.29a1.27,1.27,0,0,1,.29-.21c.08,0,.14,0,.16,0L35,0l.16,0a.45.45,0,0,1,.19,0l.18.13.08,0,5.13,5.12A1,1,0,0,1,41,6Z"/>
        </g>
    </g>
</svg>
