<svg xmlns="http://www.w3.org/2000/svg" viewBox="0 0 34.19 34.19" fill="currentColor">
    <g>
        <g>
            <path d="M.86,23.94a.78.78,0,0,1-.59-.26.83.83,0,0,1-.27-.6V.86A.79.79,0,0,1,.27.25.81.81,0,0,1,.86,0H33.33a.84.84,0,0,1,.86.86V23.08a.88.88,0,0,1-.24.6.8.8,0,0,1-.62.26Zm8.73-9.3-8.07,9a.78.78,0,0,1-.6.28,1,1,0,0,1-.63-.22A.71.71,0,0,1,0,23.14a1,1,0,0,1,.21-.63L8.81,13a.81.81,0,0,1,.54-.29.72.72,0,0,1,.57.16L15,16.44,22.14,7.5a.87.87,0,0,1,1.35,0L34,22.59a.93.93,0,0,1,.14.68.75.75,0,0,1-.34.53.93.93,0,0,1-.66.12.81.81,0,0,1-.57-.34L22.76,9.51l-6.89,8.65a.78.78,0,0,1-.56.33.88.88,0,0,1-.63-.16ZM.86,29.07a.79.79,0,0,1-.59-.27A.79.79,0,0,1,0,28.21a.83.83,0,0,1,.27-.6.82.82,0,0,1,.59-.26h13.7a.8.8,0,0,1,.57.24.87.87,0,0,1,.25.62.85.85,0,0,1-.25.61.77.77,0,0,1-.57.25Zm0,5.12A.84.84,0,0,1,.27,34,.81.81,0,0,1,0,33.33a.79.79,0,0,1,.27-.61.81.81,0,0,1,.59-.25h13.7a.77.77,0,0,1,.57.25.85.85,0,0,1,.25.61.87.87,0,0,1-.25.62.8.8,0,0,1-.57.24Zm.86-12H32.47V1.72H1.72ZM10.87,7a3.54,3.54,0,0,1-1,2.54,3.29,3.29,0,0,1-2.46,1.07A3.23,3.23,0,0,1,4.94,9.55,3.56,3.56,0,0,1,3.94,7a3.51,3.51,0,0,1,1-2.52A3.25,3.25,0,0,1,7.38,3.44,3.31,3.31,0,0,1,9.84,4.49,3.5,3.5,0,0,1,10.87,7ZM9.14,7a1.89,1.89,0,0,0-.51-1.33,1.7,1.7,0,0,0-2.5,0A1.89,1.89,0,0,0,5.62,7a1.83,1.83,0,0,0,.53,1.33,1.63,1.63,0,0,0,2.46,0A1.87,1.87,0,0,0,9.14,7ZM19.68,29.07a.81.81,0,0,1-.62-.27.84.84,0,0,1-.24-.59.88.88,0,0,1,.24-.6.84.84,0,0,1,.62-.26H33.33a.82.82,0,0,1,.86.86.84.84,0,0,1-.86.86Zm0,5.12a.82.82,0,0,1-.86-.86.84.84,0,0,1,.86-.86H33.33a.84.84,0,0,1,.86.86.82.82,0,0,1-.86.86Z"/>
        </g>
    </g>
</svg>
