<svg xmlns="http://www.w3.org/2000/svg" viewBox="0 0 41 34.19">
    <g >
        <g>
            <path d="M.25,10A.81.81,0,0,1,0,9.39V.86A.81.81,0,0,1,.25.27.79.79,0,0,1,.86,0H9.39A.79.79,0,0,1,10,.27a.81.81,0,0,1,.25.59V9.39a.85.85,0,0,1-.86.86H.86A.81.81,0,0,1,.25,10Zm0,12A.83.83,0,0,1,0,21.36V12.83a.81.81,0,0,1,.25-.61A.81.81,0,0,1,.86,12H16.24a.84.84,0,0,1,.59.25.79.79,0,0,1,.27.61v8.53a.81.81,0,0,1-.27.62.88.88,0,0,1-.59.24H.86A.84.84,0,0,1,.25,22Zm8,2.21a.77.77,0,0,1,.25.57v8.57a.85.85,0,0,1-.25.6.76.76,0,0,1-.57.26H.86a.82.82,0,0,1-.61-.26.85.85,0,0,1-.25-.6V24.76a.77.77,0,0,1,.25-.57.85.85,0,0,1,.61-.25H7.71A.79.79,0,0,1,8.28,24.19ZM1.72,8.57H8.53V1.72H1.72Zm0,11.93H15.38V13.69H1.72Zm5.13,5.13H1.72v6.84H6.85Zm18.53-1.44a.81.81,0,0,1,.25.57v8.57a.89.89,0,0,1-.25.6.84.84,0,0,1-.62.26H11.11a.82.82,0,0,1-.61-.26.85.85,0,0,1-.25-.6V24.76a.77.77,0,0,1,.25-.57.85.85,0,0,1,.61-.25H24.76A.87.87,0,0,1,25.38,24.19ZM12.22,10A.81.81,0,0,1,12,9.39V.86a.81.81,0,0,1,.25-.59A.79.79,0,0,1,12.83,0H28.21a.74.74,0,0,1,.57.27A.81.81,0,0,1,29,.86V9.39a.81.81,0,0,1-.25.61.75.75,0,0,1-.57.25H12.83A.81.81,0,0,1,12.22,10ZM23.9,25.63H12v6.84H23.9ZM13.65,8.57h13.7V1.72H13.65Zm15.13,3.65a.81.81,0,0,1,.25.61v8.53a.83.83,0,0,1-.25.62.78.78,0,0,1-.57.24H19.64A.88.88,0,0,1,19,22a.84.84,0,0,1-.26-.62V12.83a.82.82,0,0,1,.26-.61.85.85,0,0,1,.6-.25h8.57A.75.75,0,0,1,28.78,12.22Zm-1.43,1.47H20.5V20.5h6.85Zm13.4,10.5a.77.77,0,0,1,.25.57v8.57a.85.85,0,0,1-.25.6.82.82,0,0,1-.61.26H28.21a.84.84,0,0,1-.62-.26.88.88,0,0,1-.24-.6V24.76a.8.8,0,0,1,.24-.57.87.87,0,0,1,.62-.25H40.14A.85.85,0,0,1,40.75,24.19Zm-1.47,1.44H29v6.84H39.28ZM40.75.27A.81.81,0,0,1,41,.86V9.39a.85.85,0,0,1-.86.86H31.61a.85.85,0,0,1-.86-.86V.86A.81.81,0,0,1,31,.27.79.79,0,0,1,31.61,0h8.53A.79.79,0,0,1,40.75.27Zm0,12a.81.81,0,0,1,.25.61v8.53a.84.84,0,0,1-.86.86H31.61a.84.84,0,0,1-.86-.86V12.83a.85.85,0,0,1,.86-.86h8.53A.81.81,0,0,1,40.75,12.22ZM39.28,1.72H32.47V8.57h6.81Zm0,12H32.47V20.5h6.81Z"/>
        </g>
    </g>
</svg>
