<svg xmlns="http://www.w3.org/2000/svg" viewBox="0 0 30.75 41">
    <g>
        <g>
            <path d="M29.89,35a.83.83,0,0,1,.63.25.94.94,0,0,1,0,1.23.83.83,0,0,1-.63.25H.86a.85.85,0,0,1-.63-.23,1,1,0,0,1,0-1.27A.85.85,0,0,1,.86,35Zm0,4.27a.82.82,0,0,1,.63.24.9.9,0,0,1,.23.62.76.76,0,0,1-.21.49,1.28,1.28,0,0,1-.49.37H.86a.85.85,0,0,1-.63-.23A.91.91,0,0,1,0,40.1c0-.3.23-.58.7-.82ZM15.38,0a12.49,12.49,0,0,1,6.43,1.76A13,13,0,0,1,26.44,6.4a12.19,12.19,0,0,1,1.77,6.39,12.44,12.44,0,0,1-1.77,6.44,12.92,12.92,0,0,1-4.63,4.63,12.58,12.58,0,0,1-12.87,0,13,13,0,0,1-4.59-4.63,12.44,12.44,0,0,1-1.77-6.44A12.19,12.19,0,0,1,4.35,6.4,13,13,0,0,1,8.94,1.76,12.5,12.5,0,0,1,15.38,0Zm0,1.72A10.83,10.83,0,0,0,9.8,3.2a11,11,0,0,0-4,4,10.75,10.75,0,0,0-1.5,5.57,10.78,10.78,0,0,0,1.5,5.58,11.25,11.25,0,0,0,4,4,10.84,10.84,0,0,0,5.58,1.49A10.83,10.83,0,0,0,21,22.41a11.25,11.25,0,0,0,4-4,10.78,10.78,0,0,0,1.5-5.58A10.75,10.75,0,0,0,25,7.22a11,11,0,0,0-4-4A10.82,10.82,0,0,0,15.38,1.72ZM23.08,29a.78.78,0,0,1,.6.24.89.89,0,0,1,.22.62.85.85,0,0,1-.22.61.76.76,0,0,1-.6.25H7.71a.82.82,0,0,1-.64-.23.85.85,0,0,1-.22-.63.87.87,0,0,1,.22-.64A.86.86,0,0,1,7.71,29Zm-7.7-23.9a1,1,0,0,1,.49.12.4.4,0,0,1,.2.37L18,9.23l4.1.49c.16,0,.34.12.53.37l.12.16a.55.55,0,0,1,.07.45.92.92,0,0,1-.23.41L19.64,14l.7,4.1a1.44,1.44,0,0,1-.05.45.63.63,0,0,1-.28.37c-.41.22-.7.22-.86,0l-3.77-1.68-3.57,1.89c-.41.16-.7.16-.86,0a.63.63,0,0,1-.33-.37,2,2,0,0,1,0-.49l.69-4.1L8.2,11.27c-.11-.1-.16-.39-.16-.86A1.09,1.09,0,0,1,8.32,10a.69.69,0,0,1,.41-.12l4.1-.53,1.85-3.57a.66.66,0,0,1,.2-.53A.77.77,0,0,1,15.38,5.13Zm0,2.74-1.19,2.54a3.46,3.46,0,0,1-.7.54l-2.71.32,2.05,1.89a.6.6,0,0,1,.23.33.32.32,0,0,1-.06.33l-.54,2.74,2.59-1.35c.16-.16.45-.16.86,0l2.54,1.35L18,13.82a2.13,2.13,0,0,1,0-.41.46.46,0,0,1,.14-.25l2.05-1.89L17.42,11a.52.52,0,0,1-.38-.13,1.35,1.35,0,0,1-.31-.41Z"/>
        </g>
    </g>
</svg>
