<svg xmlns="http://www.w3.org/2000/svg" viewBox="0 0 41 30.26">
    <g>
        <g>
            <path d="M20.5,30.26q-3,0-6-.25l-9.06-.82a5.73,5.73,0,0,1-2.76-.94,5.91,5.91,0,0,1-2.69-5V7A5.91,5.91,0,0,1,2.69,2a5.73,5.73,0,0,1,2.76-.94L14.51.29a61.48,61.48,0,0,1,12,0l9.06.78A5.73,5.73,0,0,1,38.31,2,5.91,5.91,0,0,1,41,7V23.25a5.91,5.91,0,0,1-2.69,5,5.73,5.73,0,0,1-2.76.94L26.49,30Q23.54,30.27,20.5,30.26Zm0-28.54c-1.94,0-3.9.08-5.86.25l-9,.78A4.21,4.21,0,0,0,2.85,4.12,4.11,4.11,0,0,0,1.72,7V23.25a4.11,4.11,0,0,0,1.13,2.89,4.26,4.26,0,0,0,2.77,1.37l9,.78a69.5,69.5,0,0,0,11.72,0l9-.78a4.26,4.26,0,0,0,2.77-1.37,4.11,4.11,0,0,0,1.13-2.89V7a4.11,4.11,0,0,0-1.13-2.89,4.21,4.21,0,0,0-2.77-1.37l-9-.78C24.4,1.8,22.44,1.72,20.5,1.72ZM16.24,23.66a.69.69,0,0,1-.41-.09.77.77,0,0,1-.45-.73V7.46a.78.78,0,0,1,.47-.76.81.81,0,0,1,.84,0l12,7.71a.68.68,0,0,1,.37.68.87.87,0,0,1-.37.76l-12,7.66A.69.69,0,0,1,16.24,23.66ZM17.1,9V21.24l9.51-6.11Z"/>
        </g>
    </g>
</svg>
