<svg xmlns="http://www.w3.org/2000/svg" viewBox="0 0 41 39.28" fill="currentColor">
    <g>
        <g>
            <path d="M41,35a4.21,4.21,0,0,1-.57,2.14,4.37,4.37,0,0,1-1.56,1.55,4.11,4.11,0,0,1-2.13.58H4.26a4.11,4.11,0,0,1-2.13-.58A4.37,4.37,0,0,1,.57,37.15,4.21,4.21,0,0,1,0,35V4.26A4.2,4.2,0,0,1,.57,2.13,4.48,4.48,0,0,1,2.13.57,4.2,4.2,0,0,1,4.26,0H36.74a4.2,4.2,0,0,1,2.13.57,4.48,4.48,0,0,1,1.56,1.56A4.2,4.2,0,0,1,41,4.26ZM39.28,6.81V4.26a2.53,2.53,0,0,0-.74-1.82,2.4,2.4,0,0,0-1.8-.76H4.26a2.4,2.4,0,0,0-1.8.76,2.53,2.53,0,0,0-.74,1.82V6.81Zm0,1.72H1.72V35a2.44,2.44,0,0,0,.76,1.79,2.47,2.47,0,0,0,1.78.76H36.74a2.43,2.43,0,0,0,1.8-.76A2.5,2.5,0,0,0,39.28,35ZM5.13,4.26a.89.89,0,0,1-.25.6.81.81,0,0,1-.62.27.79.79,0,0,1-.61-.27.85.85,0,0,1-.25-.6.83.83,0,0,1,.27-.59.81.81,0,0,1,.59-.27.89.89,0,0,1,.6.25A.79.79,0,0,1,5.13,4.26ZM6,34.15a.82.82,0,0,1-.86-.86v-3.4A.82.82,0,0,1,6,29h3.4a.84.84,0,0,1,.86.86v3.4a.84.84,0,0,1-.86.86ZM8.53,4.26a.85.85,0,0,1-.25.6.74.74,0,0,1-.57.27.83.83,0,0,1-.6-.27.86.86,0,0,1-.26-.6.88.88,0,0,1,.24-.59.81.81,0,0,1,.62-.27.78.78,0,0,1,.59.25A.87.87,0,0,1,8.53,4.26ZM6.85,32.43H8.53V30.75H6.85ZM12,4.26a.88.88,0,0,1-.24.6.81.81,0,0,1-.62.27.79.79,0,0,1-.61-.27.83.83,0,0,1,0-1.19.79.79,0,0,1,.61-.27.87.87,0,0,1,.62.25A.84.84,0,0,1,12,4.26Zm.86,26.49a.79.79,0,0,1-.61-.27.81.81,0,0,1-.25-.59.85.85,0,0,1,.25-.6.82.82,0,0,1,.61-.26H18a.78.78,0,0,1,.57.24.83.83,0,0,1,.25.62.81.81,0,0,1-.25.61.75.75,0,0,1-.57.25Zm0,3.4a.84.84,0,0,1-.86-.86.85.85,0,0,1,.86-.86H18a.75.75,0,0,1,.57.25.81.81,0,0,1,.25.61.83.83,0,0,1-.25.62.78.78,0,0,1-.57.24Zm6.81-12V13.65h-3.4v.9a.87.87,0,1,1-1.73,0V12.79a.85.85,0,0,1,.25-.61.81.81,0,0,1,.62-.25H25.63a.81.81,0,0,1,.61.25.85.85,0,0,1,.25.61v1.76a.87.87,0,1,1-1.73,0v-.9h-3.4v8.53h1.72a.79.79,0,0,1,.58.25.84.84,0,0,1,.24.61.86.86,0,0,1-.24.62.82.82,0,0,1-.58.24H18A.82.82,0,0,1,17.1,23a.84.84,0,0,1,.86-.86Zm3.44,12a.84.84,0,0,1-.86-.86v-3.4a.84.84,0,0,1,.86-.86h3.41a.84.84,0,0,1,.86.86v3.4a.84.84,0,0,1-.86.86Zm.82-1.72h1.73V30.75H23.9Zm6-1.68a.83.83,0,0,1-.6-.27.82.82,0,0,1-.26-.59.89.89,0,0,1,.86-.86H35a.84.84,0,0,1,.87.86.85.85,0,0,1-.25.61.83.83,0,0,1-.62.25Zm0,3.4a.88.88,0,0,1-.6-.24.84.84,0,0,1-.26-.62.82.82,0,0,1,.26-.61.85.85,0,0,1,.6-.25H35a.83.83,0,0,1,.62.25.85.85,0,0,1,.25.61.84.84,0,0,1-.87.86Z"/>
        </g>
    </g>
</svg>
