<svg xmlns="http://www.w3.org/2000/svg" viewBox="0 0 39.28 32.47">
    <g>
        <g >
            <path d="M39,3.67a.84.84,0,0,1,.25.59v24a.75.75,0,0,1-.25.57.81.81,0,0,1-.61.25H30.75v2.58a.84.84,0,0,1-.86.86H9.39a.88.88,0,0,1-.6-.24.84.84,0,0,1-.26-.62V29H.86a.81.81,0,0,1-.61-.25A.75.75,0,0,1,0,28.21v-24a.84.84,0,0,1,.25-.59A.79.79,0,0,1,.86,3.4H8.53V.86A.82.82,0,0,1,8.79.25.85.85,0,0,1,9.39,0h20.5a.79.79,0,0,1,.61.25.81.81,0,0,1,.25.61V3.4h7.67A.79.79,0,0,1,39,3.67ZM1.72,5.13v3.4H8.53V5.13ZM8.53,27.35V10.25H1.72v17.1Zm1.72-20.5H29V1.72H10.25ZM29,8.53H10.25V30.75H29ZM23.9,22.22a2.89,2.89,0,0,1-1,2.17,4.23,4.23,0,0,1-2.42,1.15v.95a.81.81,0,0,1-.27.59.79.79,0,0,1-.59.27.91.91,0,0,1-.86-.86v-.95a4.38,4.38,0,0,1-2.36-1.06,2.92,2.92,0,0,1-1-2,.78.78,0,0,1,.2-.64.91.91,0,0,1,.57-.3.78.78,0,0,1,.62.2.74.74,0,0,1,.29.57,1.26,1.26,0,0,0,.51.93,3.26,3.26,0,0,0,1.21.59V20.34q-3.4-.87-3.4-3.24a3,3,0,0,1,1-2.18,4.42,4.42,0,0,1,2.44-1.18v-.91a.84.84,0,0,1,.86-.86.79.79,0,0,1,.61.25.81.81,0,0,1,.25.61v.91a4.38,4.38,0,0,1,2.36,1.06,3,3,0,0,1,1,2.05.8.8,0,0,1-.18.62.74.74,0,0,1-.58.3.81.81,0,0,1-.61-.2.86.86,0,0,1-.31-.56,1.57,1.57,0,0,0-.55-.94,2.79,2.79,0,0,0-1.17-.57V19Q23.91,19.76,23.9,22.22Zm-5.12-3.65V15.5a2.9,2.9,0,0,0-1.21.63,1.27,1.27,0,0,0-.47,1C17.1,17.75,17.66,18.25,18.78,18.57Zm2.95,4.62a1.26,1.26,0,0,0,.49-1c0-.65-.57-1.15-1.72-1.47v3.07A3.25,3.25,0,0,0,21.73,23.19Zm9-18.06v3.4H37.6V5.13ZM37.6,27.35V10.25H30.75v17.1Z"/>
        </g>
    </g>
</svg>
