<svg xmlns="http://www.w3.org/2000/svg" viewBox="0 0 34.2 41">
    <g>
        <g>
            <path d="M23.68,36.14a.81.81,0,0,1,0,1.19.83.83,0,0,1-.6.27H.86a.79.79,0,0,1-.59-.27A.83.83,0,0,1,0,36.74V11.11a.8.8,0,0,1,.08-.33l.08-.16q.09-.09.09-.12L10.5.25,10.87,0a.9.9,0,0,1,.24,0H29.93a.75.75,0,0,1,.57.25.79.79,0,0,1,.25.61v23.9a.9.9,0,0,1-.23.62.77.77,0,0,1-.59.25.84.84,0,0,1-.86-.87v-23H12v9.39a.88.88,0,0,1-.24.6.84.84,0,0,1-.62.26H1.72V35.88H23.08A.82.82,0,0,1,23.68,36.14ZM10.25,10.25V2.91L3,10.25Zm-.74,5.86a2.47,2.47,0,0,1,.74,1.81,2.51,2.51,0,0,1-.74,1.82,2.4,2.4,0,0,1-1.8.76,2.58,2.58,0,0,1-2.58-2.58,2.45,2.45,0,0,1,.75-1.81,2.54,2.54,0,0,1,1.83-.73A2.44,2.44,0,0,1,9.51,16.11Zm0,6.85a2.45,2.45,0,0,1,.74,1.8,2.55,2.55,0,0,1-.74,1.83,2.43,2.43,0,0,1-1.8.76,2.58,2.58,0,0,1-2.58-2.59A2.42,2.42,0,0,1,5.88,23a2.55,2.55,0,0,1,1.83-.74A2.45,2.45,0,0,1,9.51,23Zm0,6.83a2.45,2.45,0,0,1,.76,1.82,2.49,2.49,0,0,1-.74,1.81,2.44,2.44,0,0,1-1.8.73,2.54,2.54,0,0,1-1.83-.73,2.57,2.57,0,0,1,0-3.63A2.49,2.49,0,0,1,7.71,29,2.41,2.41,0,0,1,9.49,29.79ZM8.3,18.51a.81.81,0,0,0,.27-.59.79.79,0,0,0-.25-.58.84.84,0,0,0-.61-.24.89.89,0,0,0-.62.22.78.78,0,0,0-.24.6.84.84,0,0,0,.86.86A.81.81,0,0,0,8.3,18.51Zm0,6.85a.81.81,0,0,0,0-1.19.79.79,0,0,0-.61-.27.84.84,0,0,0-.86.86.84.84,0,0,0,.86.87A.81.81,0,0,0,8.3,25.36Zm0,6.87a.81.81,0,0,0,.27-.62A.79.79,0,0,0,8.32,31a.86.86,0,0,0-1.23,0,.84.84,0,0,0-.24.59.88.88,0,0,0,.24.6.84.84,0,0,0,.62.26A.86.86,0,0,0,8.3,32.23ZM24.81,17.1a.82.82,0,0,1,.57.22.79.79,0,0,1,.25.6.85.85,0,0,1-.25.61.77.77,0,0,1-.57.25H14.56a.8.8,0,0,1-.62-.27.87.87,0,0,1-.25-.59.83.83,0,0,1,.25-.58.84.84,0,0,1,.62-.24Zm.57,7a.85.85,0,0,1,.25.61.87.87,0,0,1-.25.62.81.81,0,0,1-.57.25H14.56a.8.8,0,0,1-.62-.27.89.89,0,0,1-.25-.6.87.87,0,0,1,.25-.59.8.8,0,0,1,.62-.27H24.81A.77.77,0,0,1,25.38,24.15ZM23.68,31a.82.82,0,0,1,.26.59.89.89,0,0,1-.86.86H14.56a.84.84,0,0,1-.62-.24.87.87,0,0,1-.25-.62.83.83,0,0,1,.25-.61.81.81,0,0,1,.62-.25h8.52A.83.83,0,0,1,23.68,31Zm9.55,7.19a4.7,4.7,0,0,1-2.48,1v.9a.87.87,0,0,1-.23.61.74.74,0,0,1-.59.25.84.84,0,0,1-.86-.86v-.9a4.87,4.87,0,0,1-2.38-1,2.42,2.42,0,0,1-1-1.76.77.77,0,0,1,.18-.63.82.82,0,0,1,.55-.31.8.8,0,0,1,.62.18.84.84,0,0,1,.33.58,1,1,0,0,0,.51.67,2.89,2.89,0,0,0,1.21.45V34.89a6,6,0,0,1-2.22-.82,2.29,2.29,0,0,1-1.22-2,2.39,2.39,0,0,1,1-1.91,4.92,4.92,0,0,1,2.46-1v-.94a.77.77,0,0,1,.27-.58.84.84,0,0,1,.59-.24.78.78,0,0,1,.57.24.79.79,0,0,1,.25.58v.94a5,5,0,0,1,2.38.94,2.57,2.57,0,0,1,1.06,1.77.71.71,0,0,1-.2.59.93.93,0,0,1-.57.31.81.81,0,0,1-.62-.19.82.82,0,0,1-.33-.55,1.07,1.07,0,0,0-.51-.66,3.56,3.56,0,0,0-1.21-.49v2.63a5.93,5.93,0,0,1,2.21.77,2.35,2.35,0,0,1,1.23,2.05A2.48,2.48,0,0,1,33.23,38.21Zm-4.16-5.08v-2.3a3.45,3.45,0,0,0-1.23.51c-.33.24-.49.46-.49.68C27.35,32.49,27.92,32.85,29.07,33.13ZM32,37a.93.93,0,0,0,.49-.72c0-.46-.57-.83-1.72-1.1v2.33A3.28,3.28,0,0,0,32,37Z"/>
        </g>
    </g>
</svg>
