<?xml version="1.0" encoding="utf-8"?>
<!-- Generator: Adobe Illustrator 23.0.3, SVG Export Plug-In . SVG Version: 6.00 Build 0)  -->
<svg version="1.1" id="Calque_1" xmlns="http://www.w3.org/2000/svg" xmlns:xlink="http://www.w3.org/1999/xlink" x="0px" y="0px"
	 viewBox="0 0 20 20" style="enable-background:new 0 0 20 20;" xml:space="preserve">
<g>
	<path d="M17.9,3.3v13.5c0,0.4-0.3,0.8-0.6,0.8H2.7c-0.3,0-0.6-0.3-0.6-0.8V3.3c0-0.4,0.3-0.8,0.6-0.8h14.6
		C17.6,2.5,17.9,2.8,17.9,3.3z M1,3.3v13.5C1,18,1.8,19,2.7,19h14.6c0.9,0,1.7-1,1.7-2.3V3.3C19,2,18.2,1,17.3,1H2.7
		C1.8,1,1,2,1,3.3z"/>
	<path d="M4.4,6c0-0.4,0.3-0.8,0.6-0.8h10.1c0.3,0,0.6,0.3,0.6,0.8s-0.3,0.8-0.6,0.8H5C4.7,6.8,4.4,6.4,4.4,6z M4.4,9.5
		c0-0.4,0.3-0.8,0.6-0.8h10.1c0.3,0,0.6,0.3,0.6,0.8c0,0.4-0.3,0.8-0.6,0.8H5C4.7,10.3,4.4,9.9,4.4,9.5z M4.4,13
		c0-0.4,0.3-0.8,0.6-0.8h6.8c0.3,0,0.6,0.3,0.6,0.8s-0.3,0.8-0.6,0.8H5C4.7,13.8,4.4,13.4,4.4,13z"/>
</g>
</svg>
