<?xml version="1.0" encoding="utf-8"?>
<!-- Generator: Adobe Illustrator 23.0.3, SVG Export Plug-In . SVG Version: 6.00 Build 0)  -->
<svg version="1.1" id="Calque_1" xmlns="http://www.w3.org/2000/svg" xmlns:xlink="http://www.w3.org/1999/xlink" x="0px" y="0px"
	 viewBox="0 0 20 20" style="enable-background:new 0 0 20 20;" xml:space="preserve">
<path d="M3.2,0C3,0,2.8,0,2.6,0.1l0.2,1.2c0.1,0,0.2,0,0.4,0h0.6V0H3.2z M6.3,0H5v1.3h1.3V0z M8.8,0H7.5v1.3h1.3V0z M10,0H8.8v1.3
	H10V0z M12.5,0h-1.3v1.3h1.3V0z M15,0h-1.3v1.3H15V0z M16.8,0h-0.6v1.3h0.6c0.1,0,0.2,0,0.4,0l0.2-1.2C17.2,0,17,0,16.8,0z
	 M19.3,1.6C19,1.3,18.7,1,18.4,0.8l-0.7,1c0.2,0.1,0.4,0.3,0.5,0.5L19.3,1.6L19.3,1.6z M1.2,0.8C0.8,1,0.5,1.3,0.3,1.6l1,0.7
	C1.5,2.1,1.7,2,1.9,1.8L1.2,0.8L1.2,0.8z M20,3.2c0-0.2,0-0.4-0.1-0.6l-1.2,0.2c0,0.1,0,0.2,0,0.4v0.6H20V3.2z M0.1,2.6
	C0,2.8,0,3,0,3.2v0.6h1.3V3.2c0-0.1,0-0.2,0-0.4C1.3,2.8,0.1,2.6,0.1,2.6z M0,5v1.2h1.3V5C1.3,5,0,5,0,5z M20,6.3V5h-1.3v1.3H20z
	 M0,7.5v1.3h1.3V7.5H0z M20,8.8V7.5h-1.3v1.3H20z M0,10v1.3h1.3V10C1.3,10,0,10,0,10z M18.8,11.3H20V10h-1.3V11.3z M0,13.8V15h1.3
	v-1.3H0z M20,13.8v-1.3h-1.3v1.3H20z M0,13.8V15h1.3v-1.3H0z M20,15v-1.3h-1.3V15H20z M0,16.3v0.6c0,0.2,0,0.4,0.1,0.6l1.2-0.2
	c0-0.1,0-0.2,0-0.4v-0.6H0z M20,16.8v-0.6h-1.3v0.6c0,0.1,0,0.2,0,0.4l1.2,0.2C20,17.2,20,17,20,16.8z M0.3,18.9
	c0.2,0.3,0.5,0.6,0.9,0.9l0.7-1c-0.2-0.1-0.4-0.3-0.5-0.5L0.3,18.9L0.3,18.9z M18.4,19.7c0.3-0.2,0.6-0.5,0.9-0.9l-1-0.7
	c-0.1,0.2-0.3,0.4-0.5,0.5L18.4,19.7L18.4,19.7z M2.6,19.9C2.8,20,3,20,3.2,20h0.6v-1.3H3.2c-0.1,0-0.2,0-0.4,0
	C2.8,18.7,2.6,19.9,2.6,19.9z M16.8,20c0.2,0,0.4,0,0.6-0.1l-0.2-1.2c-0.1,0-0.2,0-0.4,0h-0.6V20H16.8z M5,20h1.2v-1.3H5
	C5,18.8,5,20,5,20z M8.8,20H10v-1.3H8.8V20z M8.8,18.8V20H10v-1.3H8.8z M11.3,20h1.3v-1.3h-1.3V20z M13.8,20H15v-1.3h-1.3V20z"/>
<path d="M4.2,4.1v4h11.7v-4H4.2z M3.3,8.1v-4c0-0.4,0.4-0.8,0.8-0.8h11.7c0.5,0,0.8,0.4,0.8,0.8v4c0,0.4-0.4,0.8-0.8,0.8H4.2
	C3.7,8.9,3.3,8.5,3.3,8.1z"/>
<path d="M4.2,11.9v4h11.7v-4H4.2z M3.3,15.9v-4c0-0.4,0.4-0.8,0.8-0.8h11.7c0.5,0,0.8,0.4,0.8,0.8v4c0,0.4-0.4,0.8-0.8,0.8H4.2
	C3.7,16.7,3.3,16.3,3.3,15.9z"/>
</svg>
