<?xml version="1.0" encoding="utf-8"?>
<!-- Generator: Adobe Illustrator 23.0.3, SVG Export Plug-In . SVG Version: 6.00 Build 0)  -->
<svg version="1.1" id="Calque_1" xmlns="http://www.w3.org/2000/svg" xmlns:xlink="http://www.w3.org/1999/xlink" x="0px" y="0px"
	 viewBox="0 0 20 20" style="enable-background:new 0 0 20 20;" xml:space="preserve">
<path d="M2.1,12.3v5.6h15.8v-5.6H2.1z M1,17.9v-5.6c0-0.6,0.5-1.1,1.1-1.1h15.8c0.6,0,1.1,0.5,1.1,1.1v5.6c0,0.6-0.5,1.1-1.1,1.1
	H2.1C1.5,19,1,18.5,1,17.9z M2.1,2.3v5.6h15.8V2.3H2.1z M1,7.9V2.3c0-0.6,0.5-1.1,1.1-1.1h15.8c0.6,0,1.1,0.5,1.1,1.1v5.6
	C19,8.5,18.5,9,17.9,9H2.1C1.5,9,1,8.5,1,7.9z"/>
</svg>
